<svg width="1004" height="83" viewBox="0 0 1004 83" fill="none" xmlns="http://www.w3.org/2000/svg">
<path d="M32.0172 29.5977H61.8497C62.0197 30.2777 62.1614 31.0993 62.2747 32.0625C62.388 33.0258 62.4447 33.989 62.4447 34.9523C62.4447 38.862 61.8497 42.545 60.6598 46.0014C59.4699 49.4578 57.6001 52.5458 55.0503 55.2656C52.3305 58.1554 49.0724 60.3935 45.2761 61.9801C41.4797 63.5666 37.1451 64.3599 32.2721 64.3599C27.8525 64.3599 23.6878 63.5666 19.7781 61.9801C15.8685 60.3935 12.4687 58.1837 9.57898 55.3506C6.68921 52.5175 4.3944 49.1745 2.69454 45.3214C0.994675 41.4118 0.144744 37.1621 0.144744 32.5725C0.144744 27.9828 0.994675 23.7615 2.69454 19.9085C4.3944 15.9988 6.68921 12.6274 9.57898 9.79432C12.4687 6.96122 15.8685 4.7514 19.7781 3.16486C23.6878 1.57832 27.8525 0.785055 32.2721 0.785055C37.2017 0.785055 41.593 1.63499 45.4461 3.33485C49.3557 5.03471 52.6988 7.38619 55.4752 10.3893L47.5709 18.1236C45.5877 16.0272 43.3779 14.4406 40.9414 13.364C38.505 12.2308 35.5869 11.6642 32.1871 11.6642C29.4107 11.6642 26.7759 12.1741 24.2828 13.194C21.7897 14.1573 19.6082 15.5455 17.7383 17.3587C15.8685 19.1719 14.3669 21.3817 13.2337 23.9882C12.1571 26.538 11.6188 29.3994 11.6188 32.5725C11.6188 35.7455 12.1571 38.6353 13.2337 41.2418C14.3669 43.7916 15.8685 45.9731 17.7383 47.7862C19.6648 49.5994 21.8746 51.016 24.3678 52.0359C26.8609 52.9991 29.524 53.4808 32.3571 53.4808C35.5869 53.4808 38.3066 53.0275 40.5165 52.1209C42.7829 51.1576 44.7095 49.9394 46.296 48.4662C47.4292 47.4463 48.3925 46.1714 49.1858 44.6415C50.0357 43.055 50.6873 41.2984 51.1406 39.3719H32.0172V29.5977ZM187.302 82.7184C184.356 82.7184 181.721 82.3218 179.398 81.5285C177.131 80.7919 175.148 79.8003 173.448 78.5537C171.748 77.3638 170.332 76.0323 169.199 74.5591C168.065 73.0858 167.244 71.6126 166.734 70.1394L177.358 65.8898C178.151 68.0996 179.454 69.7994 181.268 70.9894C183.081 72.2359 185.092 72.8592 187.302 72.8592C190.815 72.8592 193.592 71.7543 195.632 69.5445C197.671 67.3913 198.691 64.3599 198.691 60.4502V57.5604H198.011C196.708 59.3736 194.98 60.8185 192.827 61.8951C190.73 62.915 188.237 63.425 185.347 63.425C182.854 63.425 180.418 62.915 178.038 61.8951C175.715 60.8752 173.647 59.4303 171.833 57.5604C170.02 55.6339 168.547 53.3391 167.414 50.676C166.281 48.0129 165.714 45.0381 165.714 41.7517C165.714 38.4653 166.281 35.4906 167.414 32.8275C168.547 30.1077 170.02 27.8129 171.833 25.943C173.647 24.0165 175.715 22.5433 178.038 21.5234C180.418 20.5035 182.854 19.9935 185.347 19.9935C188.237 19.9935 190.73 20.5318 192.827 21.6084C194.98 22.6283 196.708 24.0448 198.011 25.858H198.691V21.3534H209.315V60.0252C209.315 63.5383 208.777 66.683 207.701 69.4595C206.624 72.2926 205.122 74.6724 203.196 76.5989C201.269 78.5821 198.946 80.0836 196.226 81.1035C193.563 82.1801 190.589 82.7184 187.302 82.7184ZM187.727 53.3958C189.087 53.3958 190.419 53.1408 191.722 52.6308C193.082 52.1209 194.272 51.3843 195.292 50.421C196.311 49.4011 197.133 48.1829 197.756 46.7663C198.38 45.2931 198.691 43.6216 198.691 41.7517C198.691 39.8819 198.38 38.2103 197.756 36.7371C197.133 35.2639 196.311 34.0457 195.292 33.0824C194.272 32.0625 193.082 31.2976 191.722 30.7876C190.419 30.2777 189.087 30.0227 187.727 30.0227C186.367 30.0227 185.036 30.2777 183.732 30.7876C182.429 31.2976 181.268 32.0625 180.248 33.0824C179.228 34.1023 178.406 35.3489 177.783 36.8221C177.16 38.2387 176.848 39.8819 176.848 41.7517C176.848 43.6216 177.16 45.2931 177.783 46.7663C178.406 48.1829 179.228 49.4011 180.248 50.421C181.268 51.3843 182.429 52.1209 183.732 52.6308C185.036 53.1408 186.367 53.3958 187.727 53.3958Z" fill="#4285F4"/>
<path d="M89.8709 19.9935C93.1006 19.9935 96.0471 20.5601 98.7102 21.6934C101.43 22.7699 103.753 24.2998 105.68 26.283C107.663 28.2095 109.193 30.5326 110.269 33.2524C111.402 35.9722 111.969 38.947 111.969 42.1767C111.969 45.4064 111.402 48.3812 110.269 51.101C109.193 53.8207 107.663 56.1722 105.68 58.1554C103.753 60.0819 101.43 61.6118 98.7102 62.745C96.0471 63.8216 93.1006 64.3599 89.8709 64.3599C86.6411 64.3599 83.6664 63.8216 80.9466 62.745C78.2835 61.6118 75.9604 60.0819 73.9772 58.1554C72.0507 56.1722 70.5208 53.8207 69.3876 51.101C68.311 48.3812 67.7727 45.4064 67.7727 42.1767C67.7727 38.947 68.311 35.9722 69.3876 33.2524C70.5208 30.5326 72.0507 28.2095 73.9772 26.283C75.9604 24.2998 78.2835 22.7699 80.9466 21.6934C83.6664 20.5601 86.6411 19.9935 89.8709 19.9935ZM89.8709 54.0757C91.2874 54.0757 92.6473 53.8207 93.9506 53.3108C95.3104 52.7442 96.5003 51.9509 97.5203 50.931C98.5402 49.9111 99.3335 48.6645 99.9001 47.1913C100.523 45.7181 100.835 44.0465 100.835 42.1767C100.835 40.3068 100.523 38.6353 99.9001 37.1621C99.3335 35.6889 98.5402 34.4423 97.5203 33.4224C96.5003 32.4025 95.3104 31.6375 93.9506 31.1276C92.6473 30.561 91.2874 30.2777 89.8709 30.2777C88.3977 30.2777 87.0095 30.561 85.7062 31.1276C84.403 31.6375 83.2414 32.4025 82.2215 33.4224C81.2016 34.4423 80.38 35.6889 79.7567 37.1621C79.1901 38.6353 78.9068 40.3068 78.9068 42.1767C78.9068 44.0465 79.1901 45.7181 79.7567 47.1913C80.38 48.6645 81.2016 49.9111 82.2215 50.931C83.2414 51.9509 84.403 52.7442 85.7062 53.3108C87.0095 53.8207 88.3977 54.0757 89.8709 54.0757Z" fill="#DB4437"/>
<path d="M138.842 19.9935C142.071 19.9935 145.018 20.5601 147.681 21.6934C150.401 22.7699 152.724 24.2998 154.65 26.283C156.633 28.2095 158.163 30.5326 159.24 33.2524C160.373 35.9722 160.94 38.947 160.94 42.1767C160.94 45.4064 160.373 48.3812 159.24 51.101C158.163 53.8207 156.633 56.1722 154.65 58.1554C152.724 60.0819 150.401 61.6118 147.681 62.745C145.018 63.8216 142.071 64.3599 138.842 64.3599C135.612 64.3599 132.637 63.8216 129.917 62.745C127.254 61.6118 124.931 60.0819 122.948 58.1554C121.021 56.1722 119.491 53.8207 118.358 51.101C117.282 48.3812 116.743 45.4064 116.743 42.1767C116.743 38.947 117.282 35.9722 118.358 33.2524C119.491 30.5326 121.021 28.2095 122.948 26.283C124.931 24.2998 127.254 22.7699 129.917 21.6934C132.637 20.5601 135.612 19.9935 138.842 19.9935ZM138.842 54.0757C140.258 54.0757 141.618 53.8207 142.921 53.3108C144.281 52.7442 145.471 51.9509 146.491 50.931C147.511 49.9111 148.304 48.6645 148.871 47.1913C149.494 45.7181 149.806 44.0465 149.806 42.1767C149.806 40.3068 149.494 38.6353 148.871 37.1621C148.304 35.6889 147.511 34.4423 146.491 33.4224C145.471 32.4025 144.281 31.6375 142.921 31.1276C141.618 30.561 140.258 30.2777 138.842 30.2777C137.368 30.2777 135.98 30.561 134.677 31.1276C133.374 31.6375 132.212 32.4025 131.192 33.4224C130.172 34.4423 129.351 35.6889 128.727 37.1621C128.161 38.6353 127.877 40.3068 127.877 42.1767C127.877 44.0465 128.161 45.7181 128.727 47.1913C129.351 48.6645 130.172 49.9111 131.192 50.931C132.212 51.9509 133.374 52.7442 134.677 53.3108C135.98 53.8207 137.368 54.0757 138.842 54.0757Z" fill="#FCB912"/>
<path d="M218.807 63V2.14495H229.941V63H218.807Z" fill="#0F9D58"/>
<path d="M278.496 52.9708C276.57 56.3705 273.963 59.1186 270.677 61.2151C267.447 63.3116 263.481 64.3599 258.778 64.3599C255.605 64.3599 252.659 63.8216 249.939 62.745C247.276 61.6118 244.953 60.0536 242.969 58.0704C240.986 56.0872 239.428 53.7641 238.295 51.101C237.218 48.3812 236.68 45.4064 236.68 42.1767C236.68 39.1736 237.218 36.3405 238.295 33.6774C239.371 30.9576 240.873 28.6061 242.799 26.623C244.726 24.5831 246.992 22.9683 249.599 21.7784C252.262 20.5884 255.18 19.9935 258.353 19.9935C261.696 19.9935 264.671 20.5601 267.277 21.6934C269.884 22.7699 272.065 24.2998 273.822 26.283C275.578 28.2095 276.91 30.5043 277.816 33.1674C278.723 35.8305 279.176 38.7203 279.176 41.8367C279.176 42.2334 279.176 42.5733 279.176 42.8566C279.12 43.1966 279.091 43.5083 279.091 43.7916C279.035 44.0749 279.006 44.3865 279.006 44.7265H247.644C247.871 46.4263 248.324 47.8996 249.004 49.1461C249.74 50.336 250.619 51.3559 251.639 52.2059C252.715 52.9991 253.877 53.5941 255.123 53.9907C256.37 54.3307 257.645 54.5007 258.948 54.5007C261.498 54.5007 263.594 53.9341 265.238 52.8008C266.937 51.6109 268.269 50.1377 269.232 48.3812L278.496 52.9708ZM268.382 36.8221C268.326 36.0855 268.071 35.2639 267.617 34.3573C267.221 33.4507 266.597 32.6008 265.747 31.8075C264.954 31.0143 263.934 30.3627 262.688 29.8527C261.498 29.3427 260.053 29.0878 258.353 29.0878C255.973 29.0878 253.877 29.7677 252.064 31.1276C250.25 32.4875 248.976 34.3857 248.239 36.8221H268.382Z" fill="#EA4335"/>
<path d="M306.322 2.14495H326.891C331.707 2.14495 336.042 2.88155 339.895 4.35476C343.748 5.82798 347.034 7.92448 349.754 10.6443C352.474 13.3074 354.542 16.5088 355.958 20.2485C357.432 23.9882 358.168 28.0962 358.168 32.5725C358.168 37.1054 357.432 41.2418 355.958 44.9815C354.542 48.7212 352.474 51.9226 349.754 54.5857C347.034 57.2488 343.748 59.317 339.895 60.7902C336.042 62.2634 331.707 63 326.891 63H306.322V2.14495ZM326.381 52.1209C329.724 52.1209 332.67 51.6676 335.22 50.761C337.77 49.7977 339.895 48.4662 341.595 46.7663C343.294 45.0665 344.569 43.0266 345.419 40.6468C346.269 38.2103 346.694 35.5189 346.694 32.5725C346.694 29.626 346.269 26.9629 345.419 24.5831C344.569 22.1467 343.294 20.0785 341.595 18.3786C339.895 16.6788 337.77 15.3755 335.22 14.4689C332.67 13.5057 329.724 13.0241 326.381 13.0241H317.796V52.1209H326.381ZM404.243 52.9708C402.317 56.3705 399.71 59.1186 396.424 61.2151C393.194 63.3116 389.228 64.3599 384.525 64.3599C381.352 64.3599 378.405 63.8216 375.685 62.745C373.022 61.6118 370.699 60.0536 368.716 58.0704C366.733 56.0872 365.175 53.7641 364.041 51.101C362.965 48.3812 362.426 45.4064 362.426 42.1767C362.426 39.1736 362.965 36.3405 364.041 33.6774C365.118 30.9576 366.619 28.6061 368.546 26.623C370.472 24.5831 372.739 22.9683 375.345 21.7784C378.009 20.5884 380.927 19.9935 384.1 19.9935C387.443 19.9935 390.417 20.5601 393.024 21.6934C395.63 22.7699 397.812 24.2998 399.568 26.283C401.325 28.2095 402.657 30.5043 403.563 33.1674C404.47 35.8305 404.923 38.7203 404.923 41.8367C404.923 42.2334 404.923 42.5733 404.923 42.8566C404.866 43.1966 404.838 43.5083 404.838 43.7916C404.781 44.0749 404.753 44.3865 404.753 44.7265H373.391C373.617 46.4263 374.07 47.8996 374.75 49.1461C375.487 50.336 376.365 51.3559 377.385 52.2059C378.462 52.9991 379.623 53.5941 380.87 53.9907C382.117 54.3307 383.391 54.5007 384.695 54.5007C387.244 54.5007 389.341 53.9341 390.984 52.8008C392.684 51.6109 394.016 50.1377 394.979 48.3812L404.243 52.9708ZM394.129 36.8221C394.072 36.0855 393.817 35.2639 393.364 34.3573C392.967 33.4507 392.344 32.6008 391.494 31.8075C390.701 31.0143 389.681 30.3627 388.434 29.8527C387.244 29.3427 385.8 29.0878 384.1 29.0878C381.72 29.0878 379.623 29.7677 377.81 31.1276C375.997 32.4875 374.722 34.3857 373.985 36.8221H394.129ZM406.784 21.3534H419.448L429.817 47.8712H430.412L440.866 21.3534H453.445L435.512 63H424.548L406.784 21.3534ZM496.706 52.9708C494.78 56.3705 492.173 59.1186 488.887 61.2151C485.657 63.3116 481.691 64.3599 476.988 64.3599C473.815 64.3599 470.868 63.8216 468.149 62.745C465.485 61.6118 463.162 60.0536 461.179 58.0704C459.196 56.0872 457.638 53.7641 456.505 51.101C455.428 48.3812 454.89 45.4064 454.89 42.1767C454.89 39.1736 455.428 36.3405 456.505 33.6774C457.581 30.9576 459.083 28.6061 461.009 26.623C462.936 24.5831 465.202 22.9683 467.809 21.7784C470.472 20.5884 473.39 19.9935 476.563 19.9935C479.906 19.9935 482.881 20.5601 485.487 21.6934C488.094 22.7699 490.275 24.2998 492.032 26.283C493.788 28.2095 495.12 30.5043 496.026 33.1674C496.933 35.8305 497.386 38.7203 497.386 41.8367C497.386 42.2334 497.386 42.5733 497.386 42.8566C497.33 43.1966 497.301 43.5083 497.301 43.7916C497.245 44.0749 497.216 44.3865 497.216 44.7265H465.854C466.08 46.4263 466.534 47.8996 467.214 49.1461C467.95 50.336 468.829 51.3559 469.848 52.2059C470.925 52.9991 472.087 53.5941 473.333 53.9907C474.58 54.3307 475.855 54.5007 477.158 54.5007C479.708 54.5007 481.804 53.9341 483.447 52.8008C485.147 51.6109 486.479 50.1377 487.442 48.3812L496.706 52.9708ZM486.592 36.8221C486.535 36.0855 486.28 35.2639 485.827 34.3573C485.43 33.4507 484.807 32.6008 483.957 31.8075C483.164 31.0143 482.144 30.3627 480.898 29.8527C479.708 29.3427 478.263 29.0878 476.563 29.0878C474.183 29.0878 472.087 29.7677 470.273 31.1276C468.46 32.4875 467.185 34.3857 466.449 36.8221H486.592ZM504.497 63V2.14495H515.631V63H504.497ZM544.468 19.9935C547.697 19.9935 550.644 20.5601 553.307 21.6934C556.027 22.7699 558.35 24.2998 560.276 26.283C562.26 28.2095 563.789 30.5326 564.866 33.2524C565.999 35.9722 566.566 38.947 566.566 42.1767C566.566 45.4064 565.999 48.3812 564.866 51.101C563.789 53.8207 562.26 56.1722 560.276 58.1554C558.35 60.0819 556.027 61.6118 553.307 62.745C550.644 63.8216 547.697 64.3599 544.468 64.3599C541.238 64.3599 538.263 63.8216 535.543 62.745C532.88 61.6118 530.557 60.0819 528.574 58.1554C526.647 56.1722 525.118 53.8207 523.984 51.101C522.908 48.3812 522.369 45.4064 522.369 42.1767C522.369 38.947 522.908 35.9722 523.984 33.2524C525.118 30.5326 526.647 28.2095 528.574 26.283C530.557 24.2998 532.88 22.7699 535.543 21.6934C538.263 20.5601 541.238 19.9935 544.468 19.9935ZM544.468 54.0757C545.884 54.0757 547.244 53.8207 548.547 53.3108C549.907 52.7442 551.097 51.9509 552.117 50.931C553.137 49.9111 553.93 48.6645 554.497 47.1913C555.12 45.7181 555.432 44.0465 555.432 42.1767C555.432 40.3068 555.12 38.6353 554.497 37.1621C553.93 35.6889 553.137 34.4423 552.117 33.4224C551.097 32.4025 549.907 31.6375 548.547 31.1276C547.244 30.561 545.884 30.2777 544.468 30.2777C542.994 30.2777 541.606 30.561 540.303 31.1276C539 31.6375 537.838 32.4025 536.818 33.4224C535.798 34.4423 534.977 35.6889 534.354 37.1621C533.787 38.6353 533.504 40.3068 533.504 42.1767C533.504 44.0465 533.787 45.7181 534.354 47.1913C534.977 48.6645 535.798 49.9111 536.818 50.931C537.838 51.9509 539 52.7442 540.303 53.3108C541.606 53.8207 542.994 54.0757 544.468 54.0757ZM572.965 21.3534H583.419V26.368H584.099C585.119 24.6115 586.705 23.1099 588.859 21.8633C591.012 20.6168 593.675 19.9935 596.848 19.9935C599.511 19.9935 602.033 20.5601 604.412 21.6934C606.849 22.7699 608.974 24.2998 610.787 26.283C612.657 28.2095 614.13 30.5326 615.206 33.2524C616.283 35.9722 616.821 38.947 616.821 42.1767C616.821 45.4064 616.283 48.3812 615.206 51.101C614.13 53.8207 612.657 56.1722 610.787 58.1554C608.974 60.0819 606.849 61.6118 604.412 62.745C602.033 63.8216 599.511 64.3599 596.848 64.3599C593.675 64.3599 591.012 63.7366 588.859 62.49C586.705 61.2435 585.119 59.7419 584.099 57.9854H583.419L584.099 63.9349V81.3585H572.965V21.3534ZM594.553 54.0757C596.026 54.0757 597.415 53.7924 598.718 53.2258C600.078 52.6592 601.268 51.8659 602.288 50.846C603.307 49.8261 604.129 48.5795 604.752 47.1063C605.376 45.6331 605.687 43.9899 605.687 42.1767C605.687 40.3635 605.376 38.7203 604.752 37.2471C604.129 35.7739 603.307 34.5273 602.288 33.5074C601.268 32.4875 600.078 31.6942 598.718 31.1276C597.415 30.561 596.026 30.2777 594.553 30.2777C593.08 30.2777 591.663 30.561 590.304 31.1276C589 31.6375 587.839 32.4025 586.819 33.4224C585.799 34.4423 584.977 35.6889 584.354 37.1621C583.731 38.6353 583.419 40.3068 583.419 42.1767C583.419 44.0465 583.731 45.7181 584.354 47.1913C584.977 48.6645 585.799 49.9111 586.819 50.931C587.839 51.9509 589 52.7442 590.304 53.3108C591.663 53.8207 593.08 54.0757 594.553 54.0757ZM663.372 52.9708C661.446 56.3705 658.839 59.1186 655.553 61.2151C652.323 63.3116 648.357 64.3599 643.654 64.3599C640.481 64.3599 637.534 63.8216 634.815 62.745C632.152 61.6118 629.828 60.0536 627.845 58.0704C625.862 56.0872 624.304 53.7641 623.171 51.101C622.094 48.3812 621.556 45.4064 621.556 42.1767C621.556 39.1736 622.094 36.3405 623.171 33.6774C624.247 30.9576 625.749 28.6061 627.675 26.623C629.602 24.5831 631.868 22.9683 634.475 21.7784C637.138 20.5884 640.056 19.9935 643.229 19.9935C646.572 19.9935 649.547 20.5601 652.153 21.6934C654.76 22.7699 656.941 24.2998 658.698 26.283C660.454 28.2095 661.786 30.5043 662.692 33.1674C663.599 35.8305 664.052 38.7203 664.052 41.8367C664.052 42.2334 664.052 42.5733 664.052 42.8566C663.996 43.1966 663.967 43.5083 663.967 43.7916C663.911 44.0749 663.882 44.3865 663.882 44.7265H632.52C632.747 46.4263 633.2 47.8996 633.88 49.1461C634.616 50.336 635.495 51.3559 636.515 52.2059C637.591 52.9991 638.753 53.5941 639.999 53.9907C641.246 54.3307 642.521 54.5007 643.824 54.5007C646.374 54.5007 648.47 53.9341 650.113 52.8008C651.813 51.6109 653.145 50.1377 654.108 48.3812L663.372 52.9708ZM653.258 36.8221C653.202 36.0855 652.947 35.2639 652.493 34.3573C652.097 33.4507 651.473 32.6008 650.623 31.8075C649.83 31.0143 648.81 30.3627 647.564 29.8527C646.374 29.3427 644.929 29.0878 643.229 29.0878C640.849 29.0878 638.753 29.7677 636.94 31.1276C635.126 32.4875 633.851 34.3857 633.115 36.8221H653.258ZM671.163 21.3534H681.617V27.1329H682.297C682.807 26.113 683.487 25.1781 684.337 24.3281C685.187 23.4782 686.122 22.7416 687.142 22.1183C688.218 21.495 689.352 21.0134 690.542 20.6734C691.788 20.3335 693.006 20.1635 694.196 20.1635C695.67 20.1635 696.916 20.3051 697.936 20.5884C699.013 20.8718 699.919 21.2401 700.656 21.6934L697.681 31.8075C697.001 31.4676 696.236 31.2126 695.386 31.0426C694.593 30.8159 693.601 30.7026 692.411 30.7026C690.882 30.7026 689.493 31.0143 688.247 31.6375C687 32.2042 685.924 33.0258 685.017 34.1023C684.167 35.1789 683.487 36.4538 682.977 37.927C682.524 39.3436 682.297 40.9018 682.297 42.6017V63H671.163V21.3534ZM753.047 29.5977H782.88C783.05 30.2777 783.192 31.0993 783.305 32.0625C783.418 33.0258 783.475 33.989 783.475 34.9523C783.475 38.862 782.88 42.545 781.69 46.0014C780.5 49.4578 778.63 52.5458 776.08 55.2656C773.361 58.1554 770.103 60.3935 766.306 61.9801C762.51 63.5666 758.175 64.3599 753.302 64.3599C748.883 64.3599 744.718 63.5666 740.808 61.9801C736.899 60.3935 733.499 58.1837 730.609 55.3506C727.719 52.5175 725.425 49.1745 723.725 45.3214C722.025 41.4118 721.175 37.1621 721.175 32.5725C721.175 27.9828 722.025 23.7615 723.725 19.9085C725.425 15.9988 727.719 12.6274 730.609 9.79432C733.499 6.96122 736.899 4.7514 740.808 3.16486C744.718 1.57832 748.883 0.785055 753.302 0.785055C758.232 0.785055 762.623 1.63499 766.476 3.33485C770.386 5.03471 773.729 7.38619 776.505 10.3893L768.601 18.1236C766.618 16.0272 764.408 14.4406 761.972 13.364C759.535 12.2308 756.617 11.6642 753.217 11.6642C750.441 11.6642 747.806 12.1741 745.313 13.194C742.82 14.1573 740.638 15.5455 738.769 17.3587C736.899 19.1719 735.397 21.3817 734.264 23.9882C733.187 26.538 732.649 29.3994 732.649 32.5725C732.649 35.7455 733.187 38.6353 734.264 41.2418C735.397 43.7916 736.899 45.9731 738.769 47.7862C740.695 49.5994 742.905 51.016 745.398 52.0359C747.891 52.9991 750.554 53.4808 753.387 53.4808C756.617 53.4808 759.337 53.0275 761.547 52.1209C763.813 51.1576 765.74 49.9394 767.326 48.4662C768.459 47.4463 769.423 46.1714 770.216 44.6415C771.066 43.055 771.718 41.2984 772.171 39.3719H753.047V29.5977ZM789.938 21.3534H800.392V27.1329H801.072C801.582 26.113 802.262 25.1781 803.112 24.3281C803.962 23.4782 804.896 22.7416 805.916 22.1183C806.993 21.495 808.126 21.0134 809.316 20.6734C810.563 20.3335 811.781 20.1635 812.971 20.1635C814.444 20.1635 815.691 20.3051 816.711 20.5884C817.787 20.8718 818.694 21.2401 819.43 21.6934L816.456 31.8075C815.776 31.4676 815.011 31.2126 814.161 31.0426C813.367 30.8159 812.376 30.7026 811.186 30.7026C809.656 30.7026 808.268 31.0143 807.021 31.6375C805.775 32.2042 804.698 33.0258 803.792 34.1023C802.942 35.1789 802.262 36.4538 801.752 37.927C801.298 39.3436 801.072 40.9018 801.072 42.6017V63H789.938V21.3534ZM841.695 19.9935C844.924 19.9935 847.871 20.5601 850.534 21.6934C853.254 22.7699 855.577 24.2998 857.503 26.283C859.486 28.2095 861.016 30.5326 862.093 33.2524C863.226 35.9722 863.793 38.947 863.793 42.1767C863.793 45.4064 863.226 48.3812 862.093 51.101C861.016 53.8207 859.486 56.1722 857.503 58.1554C855.577 60.0819 853.254 61.6118 850.534 62.745C847.871 63.8216 844.924 64.3599 841.695 64.3599C838.465 64.3599 835.49 63.8216 832.77 62.745C830.107 61.6118 827.784 60.0819 825.801 58.1554C823.874 56.1722 822.344 53.8207 821.211 51.101C820.135 48.3812 819.596 45.4064 819.596 42.1767C819.596 38.947 820.135 35.9722 821.211 33.2524C822.344 30.5326 823.874 28.2095 825.801 26.283C827.784 24.2998 830.107 22.7699 832.77 21.6934C835.49 20.5601 838.465 19.9935 841.695 19.9935ZM841.695 54.0757C843.111 54.0757 844.471 53.8207 845.774 53.3108C847.134 52.7442 848.324 51.9509 849.344 50.931C850.364 49.9111 851.157 48.6645 851.724 47.1913C852.347 45.7181 852.659 44.0465 852.659 42.1767C852.659 40.3068 852.347 38.6353 851.724 37.1621C851.157 35.6889 850.364 34.4423 849.344 33.4224C848.324 32.4025 847.134 31.6375 845.774 31.1276C844.471 30.561 843.111 30.2777 841.695 30.2777C840.221 30.2777 838.833 30.561 837.53 31.1276C836.227 31.6375 835.065 32.4025 834.045 33.4224C833.025 34.4423 832.204 35.6889 831.58 37.1621C831.014 38.6353 830.73 40.3068 830.73 42.1767C830.73 44.0465 831.014 45.7181 831.58 47.1913C832.204 48.6645 833.025 49.9111 834.045 50.931C835.065 51.9509 836.227 52.7442 837.53 53.3108C838.833 53.8207 840.221 54.0757 841.695 54.0757ZM899.344 57.5604H898.664C897.361 59.6569 895.605 61.3285 893.395 62.575C891.185 63.7649 888.664 64.3599 885.83 64.3599C880.561 64.3599 876.623 62.745 874.016 59.5153C871.467 56.2855 870.192 51.9792 870.192 46.5963V21.3534H881.326V45.2364C881.326 48.2395 881.977 50.4777 883.281 51.9509C884.641 53.3674 886.595 54.0757 889.145 54.0757C890.675 54.0757 892.007 53.7641 893.14 53.1408C894.33 52.4609 895.321 51.5826 896.115 50.506C896.965 49.3728 897.588 48.0695 897.984 46.5963C898.438 45.0665 898.664 43.4516 898.664 41.7517V21.3534H909.799V63H899.344V57.5604ZM918.996 21.3534H929.451V26.368H930.13C931.15 24.6115 932.737 23.1099 934.89 21.8633C937.043 20.6168 939.706 19.9935 942.879 19.9935C945.543 19.9935 948.064 20.5601 950.444 21.6934C952.88 22.7699 955.005 24.2998 956.818 26.283C958.688 28.2095 960.161 30.5326 961.238 33.2524C962.315 35.9722 962.853 38.947 962.853 42.1767C962.853 45.4064 962.315 48.3812 961.238 51.101C960.161 53.8207 958.688 56.1722 956.818 58.1554C955.005 60.0819 952.88 61.6118 950.444 62.745C948.064 63.8216 945.543 64.3599 942.879 64.3599C939.706 64.3599 937.043 63.7366 934.89 62.49C932.737 61.2435 931.15 59.7419 930.13 57.9854H929.451L930.13 63.9349V81.3585H918.996V21.3534ZM940.585 54.0757C942.058 54.0757 943.446 53.7924 944.749 53.2258C946.109 52.6592 947.299 51.8659 948.319 50.846C949.339 49.8261 950.16 48.5795 950.784 47.1063C951.407 45.6331 951.719 43.9899 951.719 42.1767C951.719 40.3635 951.407 38.7203 950.784 37.2471C950.16 35.7739 949.339 34.5273 948.319 33.5074C947.299 32.4875 946.109 31.6942 944.749 31.1276C943.446 30.561 942.058 30.2777 940.585 30.2777C939.111 30.2777 937.695 30.561 936.335 31.1276C935.032 31.6375 933.87 32.4025 932.85 33.4224C931.83 34.4423 931.009 35.6889 930.385 37.1621C929.762 38.6353 929.451 40.3068 929.451 42.1767C929.451 44.0465 929.762 45.7181 930.385 47.1913C931.009 48.6645 931.83 49.9111 932.85 50.931C933.87 51.9509 935.032 52.7442 936.335 53.3108C937.695 53.8207 939.111 54.0757 940.585 54.0757ZM986.041 64.3599C983.321 64.3599 980.884 64.0199 978.731 63.34C976.635 62.66 974.793 61.7818 973.207 60.7052C971.677 59.5719 970.374 58.297 969.297 56.8805C968.22 55.4073 967.399 53.9341 966.832 52.4609L976.776 48.2112C977.74 50.3644 979.015 51.9792 980.601 53.0558C982.244 54.0757 984.057 54.5857 986.041 54.5857C988.08 54.5857 989.695 54.2174 990.885 53.4808C992.075 52.7442 992.67 51.8659 992.67 50.846C992.67 49.7127 992.16 48.8062 991.14 48.1262C990.177 47.3896 988.477 46.738 986.041 46.1714L980.176 44.8965C978.873 44.6132 977.513 44.1599 976.096 43.5366C974.737 42.9133 973.49 42.12 972.357 41.1568C971.224 40.1935 970.289 39.0319 969.552 37.6721C968.815 36.3122 968.447 34.7256 968.447 32.9124C968.447 30.8726 968.872 29.0594 969.722 27.4729C970.629 25.8864 971.847 24.5548 973.377 23.4782C974.907 22.345 976.691 21.495 978.731 20.9284C980.828 20.3051 983.066 19.9935 985.446 19.9935C989.412 19.9935 992.953 20.7868 996.07 22.3733C999.186 23.9032 1001.48 26.368 1002.95 29.7677L993.35 33.6774C992.557 32.0342 991.395 30.8443 989.865 30.1077C988.335 29.3711 986.806 29.0028 985.276 29.0028C983.689 29.0028 982.301 29.3427 981.111 30.0227C979.921 30.646 979.326 31.4676 979.326 32.4875C979.326 33.4507 979.808 34.2157 980.771 34.7823C981.791 35.3489 983.151 35.8589 984.851 36.3122L991.225 37.842C995.475 38.862 998.62 40.5052 1000.66 42.7716C1002.76 44.9815 1003.8 47.6162 1003.8 50.676C1003.8 52.4892 1003.38 54.2174 1002.53 55.8606C1001.68 57.5038 1000.46 58.977 998.875 60.2802C997.345 61.5268 995.475 62.5184 993.265 63.255C991.112 63.9916 988.704 64.3599 986.041 64.3599Z" fill="black"/>
</svg>
